<svg id="visual" viewBox="0 0 900 600" width="900" height="600" xmlns="http://www.w3.org/2000/svg" xmlns:xlink="http://www.w3.org/1999/xlink" version="1.1"><path d="M829 600L826.2 594.5C823.3 589 817.7 578 813.2 566.8C808.7 555.7 805.3 544.3 802 533.2C798.7 522 795.3 511 793.7 500C792 489 792 478 798 466.8C804 455.7 816 444.3 823.7 433.2C831.3 422 834.7 411 831.7 400C828.7 389 819.3 378 817.3 366.8C815.3 355.7 820.7 344.3 822.8 333.2C825 322 824 311 816.8 300C809.7 289 796.3 278 795.2 266.8C794 255.7 805 244.3 807 233.2C809 222 802 211 795.8 200C789.7 189 784.3 178 784 166.8C783.7 155.7 788.3 144.3 792.5 133.2C796.7 122 800.3 111 798.2 100C796 89 788 78 790 66.8C792 55.7 804 44.3 809.2 33.2C814.3 22 812.7 11 811.8 5.5L811 0L900 0L900 5.5C900 11 900 22 900 33.2C900 44.3 900 55.7 900 66.8C900 78 900 89 900 100C900 111 900 122 900 133.2C900 144.3 900 155.7 900 166.8C900 178 900 189 900 200C900 211 900 222 900 233.2C900 244.3 900 255.7 900 266.8C900 278 900 289 900 300C900 311 900 322 900 333.2C900 344.3 900 355.7 900 366.8C900 378 900 389 900 400C900 411 900 422 900 433.2C900 444.3 900 455.7 900 466.8C900 478 900 489 900 500C900 511 900 522 900 533.2C900 544.3 900 555.7 900 566.8C900 578 900 589 900 594.5L900 600Z" fill="#FFFFFF" stroke-linecap="round" stroke-linejoin="miter"></path></svg>